999
dxfrw 0.6.3
  0
SECTION
  2
HEADER
  9
$ACADVER
  1
AC1021
  9
$DWGCODEPAGE
  3
ANSI_1252
  9
$INSBASE
 10
0
 20
0
 30
0
  9
$EXTMIN
 10
0
 20
-4.440892098500626e-16
 30
0
  9
$EXTMAX
 10
23.37828298611111
 20
6.016320893227981
 30
0
  9
$LIMMIN
 10
0
 20
0
  9
$LIMMAX
 10
12
 20
9
  9
$ORTHOMODE
 70
    0
  9
$REGENMODE
 70
    1
  9
$FILLMODE
 70
    1
  9
$QTEXTMODE
 70
    0
  9
$MIRRTEXT
 70
    1
  9
$LTSCALE
 40
1
  9
$ATTMODE
 70
    1
  9
$TEXTSIZE
 40
0.2
  9
$TRACEWID
 40
0.05
  9
$TEXTSTYLE
  7
STANDARD
  9
$CLAYER
  8
0
  9
$CELTYPE
  6
BYLAYER
  9
$CECOLOR
 62
  178
  9
$CELTSCALE
 40
1
  9
$DISPSILH
 70
    0
  9
$DIMSCALE
 40
1
  9
$DIMASZ
 40
2.5
  9
$DIMEXO
 40
0.625
  9
$DIMDLI
 40
0.38
  9
$DIMRND
 40
0
  9
$DIMDLE
 40
0
  9
$DIMEXE
 40
1.25
  9
$DIMTP
 40
0
  9
$DIMTM
 40
0
  9
$DIMTXT
 40
2.5
  9
$DIMCEN
 40
0.09
  9
$DIMTSZ
 40
0
  9
$DIMTOL
 70
    0
  9
$DIMLIM
 70
    0
  9
$DIMTIH
 70
    1
  9
$DIMTOH
 70
    1
  9
$DIMSE1
 70
    0
  9
$DIMSE2
 70
    0
  9
$DIMTAD
 70
    0
  9
$DIMZIN
 70
    8
  9
$DIMBLK
  1

  9
$DIMASO
 70
    1
  9
$DIMSHO
 70
    1
  9
$DIMPOST
  1

  9
$DIMAPOST
  1

  9
$DIMALT
 70
    0
  9
$DIMALTD
 70
    2
  9
$DIMALTF
 40
25.4
  9
$DIMLFAC
 40
1
  9
$DIMTOFL
 70
    0
  9
$DIMTVP
 40
0
  9
$DIMTIX
 70
    0
  9
$DIMSOXD
 70
    0
  9
$DIMSAH
 70
    0
  9
$DIMBLK1
  1

  9
$DIMBLK2
  1

  9
$DIMSTYLE
  2
STANDARD
  9
$DIMCLRD
 70
  178
  9
$DIMCLRE
 70
  178
  9
$DIMCLRT
 70
  178
  9
$DIMTFAC
 40
1
  9
$DIMGAP
 40
0.625
  9
$DIMJUST
 70
    0
  9
$DIMSD1
 70
    0
  9
$DIMSD2
 70
    0
  9
$DIMTOLJ
 70
    1
  9
$DIMTZIN
 70
    0
  9
$DIMALTZ
 70
    0
  9
$DIMALTTZ
 70
    0
  9
$DIMUPT
 70
    0
  9
$DIMDEC
 70
    4
  9
$DIMTDEC
 70
    4
  9
$DIMALTU
 70
    2
  9
$DIMALTTD
 70
    2
  9
$DIMTXSTY
  7
STANDARD
  9
$DIMAUNIT
 70
    0
  9
$DIMADEC
 70
    0
  9
$DIMALTRND
 40
0
  9
$DIMAZIN
 70
    0
  9
$DIMDSEP
 70
   44
  9
$DIMATFIT
 70
    3
  9
$DIMFRAC
 70
    0
  9
$DIMLDRBLK
  1
STANDARD
  9
$DIMLUNIT
 70
    2
  9
$DIMLWD
 70
   -2
  9
$DIMLWE
 70
   -2
  9
$DIMTMOVE
 70
    0
  9
$DIMFXL
 40
1
  9
$DIMFXLON
 70
    0
  9
$DIMJOGANG
 40
0.7854
  9
$DIMTFILL
 70
    0
  9
$DIMTFILLCLR
 70
    0
  9
$DIMARCSYM
 70
    0
  9
$DIMLTYPE
  6

  9
$DIMLTEX1
  6

  9
$DIMLTEX2
  6

  9
$LUNITS
 70
    2
  9
$LUPREC
 70
    4
  9
$SKETCHINC
 40
0.1
  9
$FILLETRAD
 40
0.5
  9
$AUNITS
 70
    0
  9
$AUPREC
 70
    0
  9
$MENU
  1
.
  9
$ELEVATION
 40
0
  9
$PELEVATION
 40
0
  9
$THICKNESS
 40
0
  9
$LIMCHECK
 70
    0
  9
$CHAMFERA
 40
0
  9
$CHAMFERB
 40
0
  9
$CHAMFERC
 40
0
  9
$CHAMFERD
 40
0
  9
$SKPOLY
 70
    0
  9
$USRTIMER
 70
    1
  9
$ANGBASE
 50
0
  9
$ANGDIR
 70
    0
  9
$PDMODE
 70
    0
  9
$PDSIZE
 40
0
  9
$PLINEWID
 40
0
  9
$SPLFRAME
 70
    0
  9
$SPLINETYPE
 70
    6
  9
$SPLINESEGS
 70
    8
  9
$HANDSEED
  5
20000
  9
$SURFTAB1
 70
    6
  9
$SURFTAB2
 70
    6
  9
$SURFTYPE
 70
    6
  9
$SURFU
 70
    6
  9
$SURFV
 70
    6
  9
$UCSBASE
  2

  9
$UCSNAME
  2

  9
$UCSORG
 10
0
 20
0
 30
0
  9
$UCSXDIR
 10
1
 20
0
 30
0
  9
$UCSYDIR
 10
0
 20
1
 30
0
  9
$UCSORTHOREF
  2

  9
$UCSORTHOVIEW
 70
    0
  9
$UCSORGTOP
 10
0
 20
0
 30
0
  9
$UCSORGBOTTOM
 10
0
 20
0
 30
0
  9
$UCSORGLEFT
 10
0
 20
0
 30
0
  9
$UCSORGRIGHT
 10
0
 20
0
 30
0
  9
$UCSORGFRONT
 10
0
 20
0
 30
0
  9
$UCSORGBACK
 10
0
 20
0
 30
0
  9
$PUCSBASE
  2

  9
$PUCSNAME
  2

  9
$PUCSORG
 10
0
 20
0
 30
0
  9
$PUCSXDIR
 10
1
 20
0
 30
0
  9
$PUCSYDIR
 10
0
 20
1
 30
0
  9
$PUCSORTHOREF
  2

  9
$PUCSORTHOVIEW
 70
    0
  9
$PUCSORGTOP
 10
0
 20
0
 30
0
  9
$PUCSORGBOTTOM
 10
0
 20
0
 30
0
  9
$PUCSORGLEFT
 10
0
 20
0
 30
0
  9
$PUCSORGRIGHT
 10
0
 20
0
 30
0
  9
$PUCSORGFRONT
 10
0
 20
0
 30
0
  9
$PUCSORGBACK
 10
0
 20
0
 30
0
  9
$USERI1
 70
    0
  9
$USERI2
 70
    0
  9
$USERI3
 70
    0
  9
$USERI4
 70
    0
  9
$USERI5
 70
    0
  9
$USERR1
 40
0
  9
$USERR2
 40
0
  9
$USERR3
 40
0
  9
$USERR4
 40
0
  9
$USERR5
 40
0
  9
$WORLDVIEW
 70
    1
  9
$SHADEDGE
 70
    3
  9
$SHADEDIF
 70
   70
  9
$TILEMODE
 70
    1
  9
$MAXACTVP
 70
   32
  9
$PINSBASE
 10
0
 20
0
 30
0
  9
$PLIMCHECK
 70
    0
  9
$PEXTMIN
 10
0
 20
0
 30
0
  9
$PEXTMAX
 10
0
 20
0
 30
0
  9
$GRIDMODE
 70
    0
  9
$SNAPSTYLE
 70
    0
  9
$PLIMMIN
 10
-20
 20
-7.5
  9
$PLIMMAX
 10
277
 20
202.5
  9
$UNITMODE
 70
    0
  9
$VISRETAIN
 70
    1
  9
$PLINEGEN
 70
    0
  9
$PSLTSCALE
 70
    1
  9
$TREEDEPTH
 70
 3020
  9
$CMLSTYLE
  2
STANDARD
  9
$CMLJUST
 70
    0
  9
$CMLSCALE
 40
1
  9
$PROXYGRAPHICS
 70
    1
  9
$MEASUREMENT
 70
    1
  9
$CELWEIGHT
370
   -1
  9
$ENDCAPS
280
    0
  9
$JOINSTYLE
280
    0
  9
$LWDISPLAY
290
    0
  9
$INSUNITS
 70
    4
  9
$HYPERLINKBASE
  1

  9
$STYLESHEET
  1

  9
$XEDIT
290
    1
  9
$CEPSNTYPE
380
    0
  9
$PSTYLEMODE
290
    1
  9
$EXTNAMES
290
    1
  9
$PSVPSCALE
 40
1
  9
$OLESTARTUP
290
    0
  9
$SORTENTS
280
  127
  9
$INDEXCTL
280
    0
  9
$HIDETEXT
280
    1
  9
$XCLIPFRAME
290
    0
  9
$HALOGAP
280
    0
  9
$OBSCOLOR
 70
  257
  9
$OBSLTYPE
280
    0
  9
$INTERSECTIONDISPLAY
280
    0
  9
$INTERSECTIONCOLOR
 70
  257
  9
$DIMASSOC
280
    1
  9
$PROJECTNAME
  1

  9
$CAMERADISPLAY
290
    0
  9
$LENSLENGTH
 40
50
  9
$CAMERAHEIGHT
 40
0
  9
$STEPSPERSEC
 40
2
  9
$STEPSIZE
 40
50
  9
$3DDWFPREC
 40
2
  9
$PSOLWIDTH
 40
5
  9
$PSOLHEIGHT
 40
80
  9
$LOFTANG1
 40
1.570796326794897
  9
$LOFTANG2
 40
1.570796326794897
  9
$LOFTMAG1
 40
0
  9
$LOFTMAG2
 40
0
  9
$LOFTPARAM
 70
    7
  9
$LOFTNORMALS
280
    1
  9
$LATITUDE
 40
1
  9
$LONGITUDE
 40
1
  9
$NORTHDIRECTION
 40
0
  9
$TIMEZONE
 70
-8000
  9
$LIGHTGLYPHDISPLAY
280
    1
  9
$TILEMODELIGHTSYNCH
280
    1
  9
$SOLIDHIST
280
    1
  9
$SHOWHIST
280
    1
  9
$DWFFRAME
280
    2
  9
$DGNFRAME
280
    0
  9
$REALWORLDSCALE
290
    1
  9
$INTERFERECOLOR
 62
    1
  9
$CSHADOW
280
    0
  9
$SHADOWPLANELOCATION
 40
0
  0
ENDSEC
  0
SECTION
  2
CLASSES
  0
ENDSEC
  0
SECTION
  2
TABLES
  0
TABLE
  2
VPORT
  5
8
330
0
100
AcDbSymbolTable
 70
    1
  0
VPORT
  5
31
330
2
100
AcDbSymbolTableRecord
100
AcDbViewportTableRecord
  2
*ACTIVE
 70
    0
 10
0
 20
0
 11
1
 21
1
 12
12.718914456668
 22
5.66389159398497
 13
0
 23
0
 14
10
 24
10
 15
10
 25
10
 16
0
 26
0
 36
1
 17
0
 27
0
 37
0
 40
19.50895993483712
 41
1.33786078098472
 42
50
 43
0
 44
0
 50
0
 51
0
 71
    0
 72
  100
 73
    1
 74
    3
 75
    0
 76
    0
 77
    0
 78
    0
281
    0
 65
    1
110
0
120
0
130
0
111
1
121
0
131
0
112
0
122
1
132
0
 79
    0
146
0
348
10020
 60
    7
 61
    5
292
1
282
    1
141
0
142
0
 63
  250
421
3358443
  0
ENDTAB
  0
TABLE
  2
LTYPE
  5
5
330
0
100
AcDbSymbolTable
 70
    4
  0
LTYPE
  5
14
330
5
100
AcDbSymbolTableRecord
100
AcDbLinetypeTableRecord
  2
ByBlock
 70
    0
  3

 72
   65
 73
    0
 40
0
  0
LTYPE
  5
15
330
5
100
AcDbSymbolTableRecord
100
AcDbLinetypeTableRecord
  2
ByLayer
 70
    0
  3

 72
   65
 73
    0
 40
0
  0
LTYPE
  5
16
330
5
100
AcDbSymbolTableRecord
100
AcDbLinetypeTableRecord
  2
Continuous
 70
    0
  3
Solid line
 72
   65
 73
    0
 40
0
  0
LTYPE
  5
32
330
5
100
AcDbSymbolTableRecord
100
AcDbLinetypeTableRecord
  2
DOT
 70
    0
  3
Dot . . . . . . . . . . . . . . . . . . . . . .
 72
   65
 73
    2
 40
6.35
 49
0
 74
    0
 49
-6.35
 74
    0
  0
LTYPE
  5
33
330
5
100
AcDbSymbolTableRecord
100
AcDbLinetypeTableRecord
  2
DOTTINY
 70
    0
  3
Dot (.15x) .....................................
 72
   65
 73
    2
 40
0.9525
 49
0
 74
    0
 49
-0.9525
 74
    0
  0
LTYPE
  5
34
330
5
100
AcDbSymbolTableRecord
100
AcDbLinetypeTableRecord
  2
DOT2
 70
    0
  3
Dot (.5x) .....................................
 72
   65
 73
    2
 40
3.175
 49
0
 74
    0
 49
-3.175
 74
    0
  0
LTYPE
  5
35
330
5
100
AcDbSymbolTableRecord
100
AcDbLinetypeTableRecord
  2
DOTX2
 70
    0
  3
Dot (2x) .  .  .  .  .  .  .  .  .  .  .  .  .
 72
   65
 73
    2
 40
12.7
 49
0
 74
    0
 49
-12.7
 74
    0
  0
LTYPE
  5
36
330
5
100
AcDbSymbolTableRecord
100
AcDbLinetypeTableRecord
  2
DASHED
 70
    0
  3
Dashed _ _ _ _ _ _ _ _ _ _ _ _ _ _ _ _ _
 72
   65
 73
    2
 40
19.05
 49
12.7
 74
    0
 49
-6.35
 74
    0
  0
LTYPE
  5
37
330
5
100
AcDbSymbolTableRecord
100
AcDbLinetypeTableRecord
  2
DASHEDTINY
 70
    0
  3
Dashed (.15x) _ _ _ _ _ _ _ _ _ _ _ _ _ _ _ _ _
 72
   65
 73
    2
 40
2.8575
 49
1.905
 74
    0
 49
-0.9525
 74
    0
  0
LTYPE
  5
38
330
5
100
AcDbSymbolTableRecord
100
AcDbLinetypeTableRecord
  2
DASHED2
 70
    0
  3
Dashed (.5x) _ _ _ _ _ _ _ _ _ _ _ _ _ _ _ _ _
 72
   65
 73
    2
 40
9.524999999999999
 49
6.35
 74
    0
 49
-3.175
 74
    0
  0
LTYPE
  5
39
330
5
100
AcDbSymbolTableRecord
100
AcDbLinetypeTableRecord
  2
DASHEDX2
 70
    0
  3
Dashed (2x) ____  ____  ____  ____  ____  ___
 72
   65
 73
    2
 40
38.09999999999999
 49
25.4
 74
    0
 49
-12.7
 74
    0
  0
LTYPE
  5
3A
330
5
100
AcDbSymbolTableRecord
100
AcDbLinetypeTableRecord
  2
DASHDOT
 70
    0
  3
Dash dot __ . __ . __ . __ . __ . __ . __ . __
 72
   65
 73
    4
 40
25.4
 49
12.7
 74
    0
 49
-6.35
 74
    0
 49
0
 74
    0
 49
-6.35
 74
    0
  0
LTYPE
  5
3B
330
5
100
AcDbSymbolTableRecord
100
AcDbLinetypeTableRecord
  2
DASHDOTTINY
 70
    0
  3
Dash dot (.15x) _._._._._._._._._._._._._._._.
 72
   65
 73
    4
 40
3.81
 49
1.905
 74
    0
 49
-0.9525
 74
    0
 49
0
 74
    0
 49
-0.9525
 74
    0
  0
LTYPE
  5
3C
330
5
100
AcDbSymbolTableRecord
100
AcDbLinetypeTableRecord
  2
DASHDOT2
 70
    0
  3
Dash dot (.5x) _._._._._._._._._._._._._._._.
 72
   65
 73
    4
 40
12.7
 49
6.35
 74
    0
 49
-3.175
 74
    0
 49
0
 74
    0
 49
-3.175
 74
    0
  0
LTYPE
  5
3D
330
5
100
AcDbSymbolTableRecord
100
AcDbLinetypeTableRecord
  2
DASHDOTX2
 70
    0
  3
Dash dot (2x) ____  .  ____  .  ____  .  ___
 72
   65
 73
    4
 40
50.8
 49
25.4
 74
    0
 49
-12.7
 74
    0
 49
0
 74
    0
 49
-12.7
 74
    0
  0
LTYPE
  5
3E
330
5
100
AcDbSymbolTableRecord
100
AcDbLinetypeTableRecord
  2
DIVIDE
 70
    0
  3
Divide ____ . . ____ . . ____ . . ____ . . ____
 72
   65
 73
    6
 40
31.75
 49
12.7
 74
    0
 49
-6.35
 74
    0
 49
0
 74
    0
 49
-6.35
 74
    0
 49
0
 74
    0
 49
-6.35
 74
    0
  0
LTYPE
  5
3F
330
5
100
AcDbSymbolTableRecord
100
AcDbLinetypeTableRecord
  2
DIVIDETINY
 70
    0
  3
Divide (.15x) __..__..__..__..__..__..__..__.._
 72
   65
 73
    6
 40
4.7625
 49
1.905
 74
    0
 49
-0.9525
 74
    0
 49
0
 74
    0
 49
-0.9525
 74
    0
 49
0
 74
    0
 49
-0.9525
 74
    0
  0
LTYPE
  5
40
330
5
100
AcDbSymbolTableRecord
100
AcDbLinetypeTableRecord
  2
DIVIDE2
 70
    0
  3
Divide (.5x) __..__..__..__..__..__..__..__.._
 72
   65
 73
    6
 40
15.875
 49
6.35
 74
    0
 49
-3.175
 74
    0
 49
0
 74
    0
 49
-3.175
 74
    0
 49
0
 74
    0
 49
-3.175
 74
    0
  0
LTYPE
  5
41
330
5
100
AcDbSymbolTableRecord
100
AcDbLinetypeTableRecord
  2
DIVIDEX2
 70
    0
  3
Divide (2x) ________  .  .  ________  .  .  _
 72
   65
 73
    6
 40
63.5
 49
25.4
 74
    0
 49
-12.7
 74
    0
 49
0
 74
    0
 49
-12.7
 74
    0
 49
0
 74
    0
 49
-12.7
 74
    0
  0
LTYPE
  5
42
330
5
100
AcDbSymbolTableRecord
100
AcDbLinetypeTableRecord
  2
BORDER
 70
    0
  3
Border __ __ . __ __ . __ __ . __ __ . __ __ .
 72
   65
 73
    6
 40
44.45
 49
12.7
 74
    0
 49
-6.35
 74
    0
 49
12.7
 74
    0
 49
-6.35
 74
    0
 49
0
 74
    0
 49
-6.35
 74
    0
  0
LTYPE
  5
43
330
5
100
AcDbSymbolTableRecord
100
AcDbLinetypeTableRecord
  2
BORDERTINY
 70
    0
  3
Border (.15x) __.__.__.__.__.__.__.__.__.__.__.
 72
   65
 73
    6
 40
6.6675
 49
1.905
 74
    0
 49
-0.9525
 74
    0
 49
1.905
 74
    0
 49
-0.9525
 74
    0
 49
0
 74
    0
 49
-0.9525
 74
    0
  0
LTYPE
  5
44
330
5
100
AcDbSymbolTableRecord
100
AcDbLinetypeTableRecord
  2
BORDER2
 70
    0
  3
Border (.5x) __.__.__.__.__.__.__.__.__.__.__.
 72
   65
 73
    6
 40
22.225
 49
6.35
 74
    0
 49
-3.175
 74
    0
 49
6.35
 74
    0
 49
-3.175
 74
    0
 49
0
 74
    0
 49
-3.175
 74
    0
  0
LTYPE
  5
45
330
5
100
AcDbSymbolTableRecord
100
AcDbLinetypeTableRecord
  2
BORDERX2
 70
    0
  3
Border (2x) ____  ____  .  ____  ____  .  ___
 72
   65
 73
    6
 40
88.89999999999999
 49
25.4
 74
    0
 49
-12.7
 74
    0
 49
25.4
 74
    0
 49
-12.7
 74
    0
 49
0
 74
    0
 49
-12.7
 74
    0
  0
LTYPE
  5
46
330
5
100
AcDbSymbolTableRecord
100
AcDbLinetypeTableRecord
  2
CENTER
 70
    0
  3
Center ____ _ ____ _ ____ _ ____ _ ____ _ ____
 72
   65
 73
    4
 40
50.8
 49
31.75
 74
    0
 49
-6.35
 74
    0
 49
6.35
 74
    0
 49
-6.35
 74
    0
  0
LTYPE
  5
47
330
5
100
AcDbSymbolTableRecord
100
AcDbLinetypeTableRecord
  2
CENTERTINY
 70
    0
  3
Center (.15x) ___ _ ___ _ ___ _ ___ _ ___ _ ___
 72
   65
 73
    4
 40
7.619999999999999
 49
4.7625
 74
    0
 49
-0.9525
 74
    0
 49
0.9525
 74
    0
 49
-0.9525
 74
    0
  0
LTYPE
  5
48
330
5
100
AcDbSymbolTableRecord
100
AcDbLinetypeTableRecord
  2
CENTER2
 70
    0
  3
Center (.5x) ___ _ ___ _ ___ _ ___ _ ___ _ ___
 72
   65
 73
    4
 40
28.575
 49
19.05
 74
    0
 49
-3.175
 74
    0
 49
3.175
 74
    0
 49
-3.175
 74
    0
  0
LTYPE
  5
49
330
5
100
AcDbSymbolTableRecord
100
AcDbLinetypeTableRecord
  2
CENTERX2
 70
    0
  3
Center (2x) ________  __  ________  __  _____
 72
   65
 73
    4
 40
101.6
 49
63.5
 74
    0
 49
-12.7
 74
    0
 49
12.7
 74
    0
 49
-12.7
 74
    0
  0
ENDTAB
  0
TABLE
  2
LAYER
  5
2
330
0
100
AcDbSymbolTable
 70
    1
  0
LAYER
  5
10
330
2
100
AcDbSymbolTableRecord
100
AcDbLayerTableRecord
  2
0
 70
    0
 62
    7
  6
CONTINUOUS
370
   -3
390
F
  0
ENDTAB
  0
TABLE
  2
STYLE
  5
3
330
0
100
AcDbSymbolTable
 70
    3
  0
STYLE
  5
4A
330
2
100
AcDbSymbolTableRecord
100
AcDbTextStyleTableRecord
  2
Standard
 70
    0
 40
0
 41
1
 50
0
 71
    0
 42
1
  3
txt
  4

  0
ENDTAB
  0
TABLE
  2
VIEW
  5
6
330
0
100
AcDbSymbolTable
 70
    0
  0
ENDTAB
  0
TABLE
  2
UCS
  5
7
330
0
100
AcDbSymbolTable
 70
    0
  0
ENDTAB
  0
TABLE
  2
APPID
  5
9
330
0
100
AcDbSymbolTable
 70
    1
  0
APPID
  5
12
330
9
100
AcDbSymbolTableRecord
100
AcDbRegAppTableRecord
  2
ACAD
 70
    0
  0
APPID
  5
4B
330
9
100
AcDbSymbolTableRecord
100
AcDbRegAppTableRecord
  2
LibreCad
 70
    0
  0
ENDTAB
  0
TABLE
  2
DIMSTYLE
  5
A
330
0
100
AcDbSymbolTable
 70
    1
100
AcDbDimStyleTable
 71
    1
  0
DIMSTYLE
105
4C
330
A
100
AcDbSymbolTableRecord
100
AcDbDimStyleTableRecord
  2
Standard
 70
    0
 40
1
 41
2.5
 42
0.625
 43
0.38
 44
1.25
 45
0
 46
0
 47
0
 48
0
 49
1
140
2.5
141
0.09
142
0
143
25.4
144
1
145
0
146
1
147
0.625
148
0
 71
    0
 72
    0
 73
    1
 74
    1
 75
    0
 76
    0
 77
    0
 78
    8
 79
    0
170
    0
171
    2
172
    0
173
    0
174
    0
175
    0
176
  178
177
  178
178
  178
179
    0
271
    4
272
    4
273
    2
274
    2
275
    0
276
    0
277
    2
278
    0
279
    0
280
    0
281
    0
282
    0
283
    1
284
    0
285
    0
286
    0
288
    0
289
    3
340
STANDARD
341

371
   -2
372
   -2
  0
ENDTAB
  0
TABLE
  2
BLOCK_RECORD
  5
1
330
0
100
AcDbSymbolTable
 70
    2
  0
BLOCK_RECORD
  5
1F
330
1
100
AcDbSymbolTableRecord
100
AcDbBlockTableRecord
  2
*Model_Space
 70
    0
280
    1
281
    0
  0
BLOCK_RECORD
  5
1E
330
1
100
AcDbSymbolTableRecord
100
AcDbBlockTableRecord
  2
*Paper_Space
 70
    0
280
    1
281
    0
  0
ENDTAB
  0
ENDSEC
  0
SECTION
  2
BLOCKS
  0
BLOCK
  5
20
330
1F
100
AcDbEntity
  8
0
100
AcDbBlockBegin
  2
*Model_Space
 70
    0
 10
0
 20
0
 30
0
  3
*Model_Space
  1

  0
ENDBLK
  5
21
330
1F
100
AcDbEntity
  8
0
100
AcDbBlockEnd
  0
BLOCK
  5
1C
330
1B
100
AcDbEntity
  8
0
100
AcDbBlockBegin
  2
*Paper_Space
 70
    0
 10
0
 20
0
 30
0
  3
*Paper_Space
  1

  0
ENDBLK
  5
1D
330
1F
100
AcDbEntity
  8
0
100
AcDbBlockEnd
  0
ENDSEC
  0
SECTION
  2
ENTITIES
  0
LWPOLYLINE
  5
4D
100
AcDbEntity
  8
0
  6
ByLayer
 62
  256
370
   -1
100
AcDbPolyline
 90
  722
 70
    1
 43
0
 10
3.483642569444446
 20
3.214914365450195
 10
3.563096905577448
 20
3.198430435458473
 10
3.607693125
 20
3.152902698783528
 42
-0.171291913418188
 10
3.649034236111111
 20
3.00818158767242
 42
-0.06038790961784946
 10
3.628363680555557
 20
2.863460476561304
 42
-0.03414947166054863
 10
3.597357847222225
 20
2.718739226561304
 42
-0.04587940391282174
 10
3.566352013888891
 20
2.615359365450193
 42
-0.06673334855366872
 10
3.535346180555557
 20
2.52231464322797
 42
-0.02061464594178344
 10
3.473307291666671
 20
2.356922837672416
 42
0.01803242015072461
 10
3.431966180555555
 20
2.253542837672413
 42
0.02473446849629691
 10
3.297580347222222
 20
1.8710829765613
 42
0.04808093711679232
 10
3.21487090277778
 20
1.45759019878352
 42
0.06153568189748577
 10
3.204535625000002
 20
1.374880754339097
 10
3.204535625000006
 20
1.292198532116803
 42
0.06550652143306231
 10
3.245903819444445
 20
0.9717232543390861
 42
0.09070964456020932
 10
3.390624930555559
 20
0.6719456154501948
 42
0.1380384817863168
 10
3.773084791666669
 20
0.3721681154501953
 10
3.850558819444446
 20
0.342735615450195
 10
3.890218125000003
 20
0.4237089487835259
 10
3.8028440322876
 20
0.4799172613140446
 10
3.740816433105472
 20
0.5465957908245453
 10
3.701014963073733
 20
0.6212101205059355
 10
3.67850837885115
 20
0.7149089634807044
 10
3.678273211784366
 20
0.8258329601475047
 10
3.698135562621224
 20
0.9350953414171759
 10
3.739957653236392
 20
1.060184610652575
 10
3.800238680555558
 20
1.185590476561305
 10
3.888831747070422
 20
1.119021491348136
 10
3.956442951089544
 20
1.047158627957945
 10
3.998785440923905
 20
0.9770939292437948
 10
4.01809354166667
 20
0.9052626987835258
 42
-0.08172784507622435
 10
3.990532708333336
 20
0.659223254339086
 10
4.037733263888887
 20
0.633235754339084
 42
0.02988626763420939
 10
4.092881875000002
 20
0.7693035321168653
 10
4.173838173188106
 20
1.038911805152544
 10
4.250542569444443
 20
1.476904365450192
 42
-0.05857206284563538
 10
3.962592291666668
 20
1.348622143227974
 10
3.977182375217545
 20
1.559299239054971
 10
4.011474652777779
 20
1.717003115450195
 10
3.846560538459885
 20
1.775611039625458
 10
3.641520208333334
 20
1.894466309894639
 10
3.820520367547143
 20
2.018943283832522
 10
3.96777340277778
 20
2.090891032116861
 10
3.909133356705774
 20
2.237595375283211
 10
3.873779236111111
 20
2.445410337672417
 42
-0.04769206144182568
 10
4.191813125000001
 20
2.319759226561306
 10
4.272292665977479
 20
2.430018268538234
 10
4.384223125000001
 20
2.542415476561306
 10
4.490227914588187
 20
2.373586857536287
 10
4.544786180555556
 20
2.241688532116861
 10
4.71269311747763
 20
2.24840663003728
 10
4.957383958333339
 20
2.207535893227973
 42
-0.05754276400584349
 10
4.803846597222222
 20
1.993207559894639
 42
-0.05066063828703043
 10
5.044677708333334
 20
1.764990337672417
 10
4.854799835713705
 20
1.706901363673394
 10
4.700113958333334
 20
1.69570867100575
 10
4.693530643003783
 20
1.516050747841383
 10
4.632297152777779
 20
1.270578532116865
 10
4.565654015604657
 20
1.323241643608595
 10
4.431470590277779
 20
1.477713395398109
 10
4.369981597222223
 20
1.529096309894639
 10
4.298790843128629
 20
1.097769339929876
 10
4.246355723126729
 20
0.8900267089416456
 10
4.194281736111109
 20
0.7351781154501946
 10
4.164442291666667
 20
0.6650011710057555
 10
4.260799224497478
 20
0.670915639410735
 10
4.385591881567638
 20
0.6589634443984256
 10
4.727213541666668
 20
0.5806642265613053
 10
4.627703720194499
 20
0.4501162274081647
 10
4.562758204447429
 20
0.4017038535220649
 10
4.496256458333334
 20
0.3724122821168656
 10
4.320137070145607
 20
0.3588954083147851
 10
3.990207291666669
 20
0.3905057543390846
 10
3.951009097222224
 20
0.3098579765613056
 10
4.20126479449643
 20
0.2539649432025257
 10
4.507025763888889
 20
0.237782282116866
 10
4.74316811062283
 20
0.2463429841567955
 10
4.965743444010417
 20
0.2720250338529748
 10
5.174751547580295
 20
0.3148283465699855
 10
5.370192204861111
 20
0.3747528376724247
 10
5.552065199381511
 20
0.4517984225248544
 10
5.72037031467014
 20
0.5459650164918646
 10
5.875107334255643
 20
0.6572525349380456
 10
6.016276041666654
 20
0.7856608932279627
 42
0.03082714834155486
 10
6.376329236111111
 20
1.210004504339083
 42
0.03774861915884626
 10
6.521186041666667
 20
1.023426726561306
 10
6.730515609809028
 20
0.825078124130755
 10
6.965688315972224
 20
0.6538620737835252
 10
7.226704225260418
 20
0.5097813359363048
 10
7.51356340277778
 20
0.392838671005745
 42
0.03401749705653717
 10
7.978732708333329
 20
0.2791233932279749
 42
0.04320684720130886
 10
8.46459965277778
 20
0.217111726561304
 42
0.04925997063914802
 10
8.578314930555559
 20
0.2067764487835255
 10
8.702365486111107
 20
0.206776448783526
 42
0.04814923595016249
 10
9.467312291666667
 20
0.279123393227974
 42
0.06018389437534988
 10
10.19091798611111
 20
0.5065539487835342
 42
0.09082245254452165
 10
10.92358395833333
 20
1.017106309894633
 10
10.92469645833334
 20
1.013091448783525
 42
0.08431733173294899
 10
11.07975284722222
 20
0.6926163098946457
 42
0.1426276525279157
 10
11.48291048611111
 20
0.3721681154501857
 42
0.0470264694249168
 10
11.87917784722222
 20
0.2644749210057449
 10
11.95280937754313
 20
0.4021248550538754
 10
11.98613854166666
 20
0.5247560321168547
 42
0.09433160192465045
 10
11.95594645833333
 20
0.7032228376724156
 10
11.92119907636007
 20
0.7983004724122953
 10
11.90699767702739
 20
0.8812198827194351
 10
11.91477267092387
 20
0.9381244956632955
 10
11.94525854166667
 20
0.962174643227975
 10
12.02691492620786
 20
0.9189858353251044
 10
12.07994270833333
 20
0.9114747821168656
 10
12.11035029164632
 20
0.9209423651246755
 10
12.13036462392171
 20
0.9520430443781454
 10
12.13027020364125
 20
0.999942810613506
 10
12.11273895833333
 20
1.046755754339086
 42
-0.08987192641773879
 10
12.055121875
 20
1.188086032116866
 10
12.05251159539223
 20
1.28319343756959
 10
12.07731145833333
 20
1.324859087672417
 10
12.14433964955648
 20
1.303673008570856
 10
12.20556673611111
 20
1.247141032116865
 10
12.22743163999981
 20
1.243700511072134
 10
12.25078701388889
 20
1.267486032116866
 10
12.2615749030251
 20
1.312273152286927
 10
12.21910298611111
 20
1.368967143227973
 10
12.16735746744792
 20
1.447026969616861
 10
12.13636227430556
 20
1.526351379339083
 10
12.12919320095486
 20
1.592230268227972
 10
12.14892604166667
 20
1.629953532116863
 10
12.23481380712721
 20
1.613386018015198
 10
12.26917881944444
 20
1.616715615450191
 42
0.5356859363892467
 10
12.265869375
 20
1.737619504339085
 10
12.21715834001753
 20
1.777962213299723
 10
12.1850147952652
 20
1.830029710180149
 10
12.17767033203125
 20
1.886321066839084
 10
12.19566548611111
 20
1.925173809894638
 42
-0.2557116230546732
 10
12.328098125
 20
1.939415337672418
 10
12.34697164582729
 20
1.974386068096347
 10
12.3506764679575
 20
2.021847834406085
 10
12.33505525092602
 20
2.058926510238832
 10
12.31255451388889
 20
2.069460893227975
 10
12.26683693409496
 20
2.084211401560225
 10
12.22714044008785
 20
2.117053848259371
 10
12.21098945737097
 20
2.152512848376352
 10
12.21668868055556
 20
2.184613809894644
 42
-0.2000691564981314
 10
12.31331409722222
 20
2.240494921005753
 10
12.31459929619683
 20
2.297051173141982
 10
12.29930647211923
 20
2.314835912850885
 10
12.27878173611111
 20
2.317778948783531
 10
12.23650178930706
 20
2.316009163283958
 10
12.19940678038915
 20
2.327857405132374
 10
12.17606519920561
 20
2.349897202970373
 10
12.17260770833334
 20
2.379926309894639
 42
-0.1784670705802417
 10
12.24386965277778
 20
2.451730754339085
 10
12.25030458492703
 20
2.478763943663358
 10
12.22436548611111
 20
2.499175476561309
 10
12.13373600028939
 20
2.485767197085144
 10
12.10358550564236
 20
2.496509617186309
 10
12.09212270833333
 20
2.519059365450197
 10
12.11650687390645
 20
2.560100951563172
 10
12.16574465277778
 20
2.607682421005752
 10
12.17937823155032
 20
2.656013016842392
 10
12.14371770833333
 20
2.714941587672419
 10
12.19575964219835
 20
2.701944532279622
 10
12.21394881944444
 20
2.71364019878353
 10
12.27094215277778
 20
2.824045754339085
 10
12.2963668306552
 20
2.755605743395673
 10
12.29616993055556
 20
2.642459365450197
 10
12.30810758466933
 20
2.598460739313417
 10
12.32727569150713
 20
2.586096302041135
 10
12.34413006944445
 20
2.588992559894642
 10
12.38296875
 20
2.644206500866865
 10
12.42613423611111
 20
2.662912837672419
 10
12.43719987847222
 20
2.573045007811306
 10
12.41197395833334
 20
2.442209782116864
 10
12.41551525853952
 20
2.339708289506886
 10
12.43044310581791
 20
2.314210990334804
 10
12.44978868055556
 20
2.316938532116863
 10
12.51555663780213
 20
2.374656712425736
 10
12.561930625
 20
2.392594921005752
 10
12.57315179778576
 20
2.361873282159355
 10
12.56326633680556
 20
2.294499695311309
 10
12.50192631944445
 20
2.147667698783529
 10
12.47384013020834
 20
2.096867106335612
 10
12.46324809453329
 20
2.019784450200055
 10
12.47853978168276
 20
1.965728137859955
 10
12.50982020833334
 20
1.960194782116863
 10
12.60071344601472
 20
1.976695597589465
 10
12.6403755521769
 20
1.97158091065743
 10
12.66031923611111
 20
1.957454921005752
 10
12.66018637604608
 20
1.923116155846039
 10
12.63396680534363
 20
1.863111256743721
 10
12.514784375
 20
1.702409365450196
 10
12.45760118055556
 20
1.607547282116862
 10
12.45622804975722
 20
1.552246410229655
 10
12.47479951388889
 20
1.535254504339084
 10
12.5663168572998
 20
1.524854061295905
 10
12.619981875
 20
1.491092143227974
 10
12.61622986153126
 20
1.442205973389068
 10
12.5777294925144
 20
1.379552299810172
 10
12.51729853186343
 20
1.320283980235178
 10
12.44468881944445
 20
1.2772792265613
 42
0.1698487403973378
 10
12.36718770833333
 20
1.205854504339085
 10
12.36468952368577
 20
1.153164292556625
 10
12.38034423611111
 20
1.137549365450194
 10
12.46823624710507
 20
1.105229423687906
 10
12.51652048611111
 20
1.058664782116866
 10
12.50520904079861
 20
1.007402425346035
 10
12.45858579861111
 20
0.9543191571168652
 10
12.39196615017361
 20
0.9105688055543659
 10
12.32066548611112
 20
0.8873051987835241
 42
0.1608239466242323
 10
12.250515625
 20
0.847428948783525
 10
12.24423591438294
 20
0.7852159056469343
 10
12.260878125
 20
0.7692225598946347
 10
12.34602959047954
 20
0.7263059222111945
 10
12.39111354166667
 20
0.673844921005756
 10
12.38109783373674
 20
0.6198017106148157
 10
12.34300016006629
 20
0.5709016130433344
 10
12.28620350446224
 20
0.5343919435317446
 10
12.223904375
 20
0.5205517265613047
 10
12.10896840277778
 20
0.4852326987835252
 10
12.08840269396305
 20
0.3830997203812849
 10
12.01538118055556
 20
0.2454867265613052
 42
0.03548191553414055
 10
12.20651618055556
 20
0.2377826987835245
 10
12.44217403862848
 20
0.2463434008234557
 10
12.66329599826389
 20
0.2720254505196351
 10
12.86988182508681
 20
0.3148287632366458
 10
13.06193128472222
 20
0.3747532543390744
 10
13.23944414279514
 20
0.4517988391915146
 10
13.40242016493056
 20
0.5459654331585249
 10
13.55085911675347
 20
0.6572529516047148
 10
13.6847607638889
 20
0.785661309894643
 42
0.01329234780678609
 10
13.84491631944444
 20
0.9723475598946337
 42
0.07466869650727556
 10
13.98711493055555
 20
0.6926167265613048
 42
0.1426265452486805
 10
14.39027187500001
 20
0.3721685321168646
 42
0.06011724907307728
 10
14.896809375
 20
0.2481179765613053
 10
15.00016215277778
 20
0.2481179765613053
 42
0.04108123773631647
 10
15.11387743055556
 20
0.2377826987835245
 10
15.34953570421007
 20
0.2463434008234557
 10
15.570658203125
 20
0.2720254505196351
 10
15.77724456922744
 20
0.3148287632366458
 10
15.96929444444445
 20
0.3747532543390744
 10
16.14680747070313
 20
0.4517988391915146
 10
16.30978328993056
 20
0.5459654331585249
 10
16.45822154405382
 20
0.6572529516047148
 10
16.59212187499997
 20
0.7856613098946741
 42
0.0259443264340465
 10
16.90367326388889
 20
1.167985615450195
 42
0.09654242620840486
 10
17.31830520833333
 20
0.6409401987835235
 42
0.1033808595293095
 10
18.18663159722222
 20
0.1654356154501935
 42
0.08112755368419552
 10
19.22035104166667
 20
1.686545019508046e-05
 10
19.40643993055555
 20
1.686545019552455e-05
 42
0.06667130774690247
 10
20.45933715277778
 20
0.1992083932279751
 10
20.27001511603462
 20
0.3142457388090243
 10
20.16547326388889
 20
0.3995665876724157
 10
20.12813068542481
 20
0.4592440679461944
 10
20.10596018371583
 20
0.5386617716510251
 10
20.10136415744359
 20
0.627346156153866
 10
20.11268437500001
 20
0.7205029765613045
 10
20.45659438318147
 20
0.5868349364531547
 10
20.56500629768372
 20
0.5253659601123246
 10
20.63305659722223
 20
0.4664068654501943
 10
20.66815072487726
 20
0.3849000209296243
 10
20.67480520833334
 20
0.2768457543390852
 10
20.77719425428709
 20
0.502263919021475
 10
20.84977470345498
 20
0.7561789174786444
 10
20.8867668469588
 20
1.022682185792576
 10
20.889621875
 20
1.318132559894639
 10
20.74364468426175
 20
1.474016930613702
 10
20.62591038412518
 20
1.620419355569069
 10
20.54796125883527
 20
1.741331504578772
 10
20.50816493055556
 20
1.840593532116861
 10
20.50790052541098
 20
1.942095170211447
 10
20.54327431223128
 20
2.06218974428937
 10
20.61620734924741
 20
2.207059147349646
 10
20.72311770833334
 20
2.364546448783528
 10
20.86211234291925
 20
2.26090882105051
 10
20.97783715277778
 20
2.221235893227967
 42
-0.04120860468477041
 10
21.22696909722222
 20
2.378842282116861
 10
21.38509131944445
 20
2.090322282116862
 10
21.54451023004321
 20
2.121209111857597
 10
21.65253298611111
 20
2.117557559894641
 10
21.68123841122521
 20
1.864095225558465
 10
21.68112247117361
 20
1.653818913701029
 10
21.65484411129422
 20
1.502088942646104
 10
21.60115520833334
 20
1.401004782116862
 10
21.52646630452474
 20
1.349632500317545
 10
21.40641779632569
 20
1.311568859659484
 10
21.25092262624105
 20
1.290273842671365
 10
21.05938020833332
 20
1.285363532116882
 42
-0.07746490092841743
 10
20.96386770833333
 20
0.5962358932279619
 42
-0.05452500852598347
 10
21.02994826388889
 20
0.6513303376724147
 10
21.0877889600118
 20
0.6837920310334855
 10
21.15668789952596
 20
0.6961615749482846
 10
21.22771170993382
 20
0.6873917347671448
 10
21.29758020833334
 20
0.6600922821168549
 10
21.27048020833334
 20
0.5896983932279749
 10
21.31931838887533
 20
0.5879453658842255
 10
21.37753207164341
 20
0.6024331855049851
 10
21.51031631944445
 20
0.6805288098946356
 10
21.81849271354146
 20
0.9298338256037759
 10
21.92930780613688
 20
1.043513688215326
 10
22.02662701453633
 20
1.166337988082745
 10
22.1088936492867
 20
1.301038167263318
 10
22.16730537571378
 20
1.430790032522065
 10
22.211957774761
 20
1.573555480989532
 10
22.24180798611112
 20
1.731164365450194
 10
22.25401418628164
 20
1.853246280695251
 10
22.24983715277778
 20
1.93968755989464
 10
22.42688746160931
 20
2.005244578480374
 10
22.61551795655357
 20
2.09673410714062
 10
22.78831212744183
 20
2.203668722267336
 10
22.94400796255536
 20
2.323724997753754
 10
23.08134345017539
 20
2.454579507493095
 10
23.19905657858319
 20
2.593908825378602
 10
23.29588533605999
 20
2.739389525303494
 10
23.37828298611111
 20
2.907515198783528
 10
22.71590104166667
 20
3.266727421005751
 10
22.68140955111186
 20
3.202342012032057
 10
22.63125568977463
 20
3.140037968589118
 10
22.57194041781956
 20
3.090385661599555
 10
22.49497406378853
 20
3.047588377596192
 10
22.30942910472553
 20
2.998091600163962
 10
22.08992465277778
 20
2.991879365450195
 42
0.08608086690282413
 10
21.73231354166667
 20
3.442345893227976
 42
0.1073545778911252
 10
20.98803715277778
 20
3.886844643227976
 42
0.06485163015436336
 10
20.11971076388889
 20
4.083242282116858
 10
19.95431909722222
 20
4.083242282116863
 42
0.03542486675904788
 10
19.79923437500016
 20
4.093577559894643
 42
0.07318276221505035
 10
18.73727743055554
 20
3.939334921005737
 42
-0.05274930825624301
 10
18.36159965277778
 20
2.702464226561306
 10
18.35907105467055
 20
2.550506831130637
 10
18.33135243055556
 20
2.444488948783532
 10
18.2806811396334
 20
2.384971881785578
 10
18.20043993055556
 20
2.330014087672415
 42
-0.1122885444327452
 10
18.33840659722223
 20
2.309967421005753
 10
18.40610428288778
 20
2.261507811105172
 10
18.47592155569925
 20
2.180956426456955
 10
18.55142341118919
 20
2.06410169499045
 10
18.62554270833334
 20
1.919098393227975
 10
18.28280406985283
 20
1.94142290973841
 10
18.16774757550558
 20
1.962660377633492
 10
18.088134375
 20
1.990957004339083
 42
-0.09151166139031293
 10
18.02446770833333
 20
2.043582976561312
 42
-0.1282495737912103
 10
18.00257743055556
 20
1.953983254339085
 10
17.94971009703743
 20
1.905712592094927
 10
17.86189280240271
 20
1.866158375441419
 10
17.73453420306842
 20
1.833333836247313
 10
17.57652465277778
 20
1.811242421005753
 10
17.55633586256239
 20
1.921671264559084
 10
17.55073491685126
 20
2.029759053307826
 10
17.56289557378028
 20
2.113873315335566
 10
17.58707743055556
 20
2.165300615450203
 42
-0.08140680925222536
 10
17.64895243055556
 20
2.220395059894644
 10
17.57508321829902
 20
2.257819540481226
 10
17.49503001644347
 20
2.321841231192669
 10
17.31217465277778
 20
2.533247698783532
 10
17.57432469770114
 20
2.60355745170135
 10
17.67208104582893
 20
2.612704278983728
 10
17.74937604166666
 20
2.604726587672406
 42
-0.1020216136682915
 10
17.92051909722223
 20
2.500397143227978
 42
-0.1184199479600642
 10
17.93942604166667
 20
2.660336448783532
 10
17.98391167933146
 20
2.727803739704214
 10
18.05318814407985
 20
2.796949476203576
 10
18.26993854166667
 20
2.94386505989465
 42
-0.06155384162789887
 10
18.32866770833333
 20
2.939253532116866
 10
18.45767957585653
 20
3.346868892949079
 10
18.58200381944444
 20
3.89137478211687
 42
0.06624998724531414
 10
17.80414548611111
 20
3.514692976561312
 42
0.1053556876392986
 10
17.03919826388889
 20
2.760081448783529
 42
0.1200047257173354
 10
16.75876215277778
 20
1.99822700433908
 10
16.72650798611112
 20
1.943431032116861
 42
-0.07094957976893845
 10
16.42670381944445
 20
1.550608809894644
 42
-0.05395447042108419
 10
16.16829409722223
 20
1.354211171005757
 42
-0.1120537156306666
 10
15.961534375
 20
1.292199504339088
 10
15.86333229166667
 20
1.292197490450199
 10
15.79614270833334
 20
1.312870059894651
 42
-0.2401335694234592
 10
15.74446631944444
 20
1.416222837672422
 42
-0.06817918340809431
 10
15.76513715277777
 20
1.540273393227977
 42
-0.04317021248299168
 10
15.82714826388889
 20
1.71602755989465
 10
16.56108993055556
 20
3.866174087672424
 10
17.30539270833333
 20
6.016320615450202
 10
16.44897465277778
 20
6.016320615450202
 10
16.30447048611111
 20
5.768273671005757
 42
0.07736354539168629
 10
16.32747326388889
 20
5.484256726561314
 10
16.35280324354702
 20
5.327514780340916
 10
16.35144947916667
 20
5.163510129339091
 10
16.32505588107639
 20
5.049719851561312
 10
16.3039850016276
 20
5.01606581293284
 10
16.27832048611111
 20
5.002323115450202
 10
16.241032346344
 20
5.014488524013816
 10
16.19090317306519
 20
5.056682378631887
 10
16.11908576388889
 20
5.175228948783535
 10
16.06577645000882
 20
5.15520224176161
 10
16.02561041064793
 20
5.097490491103786
 10
16.00829787326389
 20
5.014064632377286
 10
16.01898854166667
 20
4.947445754339091
 10
16.05197779399554
 20
4.817489715983264
 10
16.05986718750001
 20
4.675364452255757
 10
16.04101139322917
 20
4.57113999262034
 10
16.02275656738282
 20
4.537390157822164
 10
15.998996875
 20
4.519847004339091
 10
15.96009442558289
 20
4.522954706060283
 10
15.91240767818558
 20
4.547586069869656
 10
15.83713159722222
 20
4.634267559894647
 10
15.79461337141461
 20
4.626404935038016
 10
15.77231024958293
 20
4.590051744147067
 10
15.76771946818034
 20
4.517480523863558
 10
15.78724548611111
 20
4.445709643227979
 10
15.83829511126942
 20
4.335184513218329
 10
15.86463836805556
 20
4.206412056422424
 10
15.85817732204861
 20
4.105073686196729
 10
15.820746875
 20
4.046024365450201
 10
15.78244804567231
 20
4.037959343834112
 10
15.72660062679185
 20
4.047302952661704
 10
15.67748193177117
 20
4.070569273867796
 10
15.63679965277778
 20
4.106082976561311
 10
15.60045337523355
 20
4.090539324030535
 10
15.57737466885249
 20
4.044436280536841
 10
15.57562203537623
 20
3.970546694212151
 10
15.59535104166667
 20
3.913862837672424
 10
15.6638916015625
 20
3.836272705293951
 10
15.70323072916667
 20
3.743570632811313
 10
15.70982272135417
 20
3.654661607203675
 10
15.680121875
 20
3.588450615450201
 42
-0.2615845939170516
 10
15.48914965277778
 20
3.560808393227981
 10
15.45624215918647
 20
3.530327983152793
 10
15.44492209116618
 20
3.476866472427771
 10
15.45290180002848
 20
3.403049388945029
 10
15.47835243055556
 20
3.360830059894647
 10
15.54276017795139
 20
3.337869847221036
 10
15.58538315972222
 20
3.294206483505757
 10
15.60114286024306
 20
3.240452130207146
 10
15.58496076388888
 20
3.187218948783542
 42
-0.1744281950467207
 10
15.43416354166666
 20
3.09688700433909
 10
15.41896723019282
 20
3.06875770617663
 10
15.42046549126307
 20
3.020495005962243
 10
15.43859697223239
 20
2.984503913578118
 10
15.46354131944444
 20
2.979102698783535
 10
15.52741825086805
 20
2.983190543835619
 10
15.57808607199457
 20
2.963585123285908
 10
15.60159971788194
 20
2.931463265189784
 10
15.59808993055556
 20
2.887739782116864
 42
-0.1789339072893556
 10
15.50344548611111
 20
2.786041726561312
 10
15.48262435818778
 20
2.765615982871774
 10
15.47989770159192
 20
2.735785144172434
 10
15.49712948879666
 20
2.711087679828729
 10
15.51907048611111
 20
2.713667559894645
 10
15.57403098212348
 20
2.732438435384623
 10
15.63222918184068
 20
2.733246431359905
 10
15.67271820136176
 20
2.709022685109963
 10
15.67686631944444
 20
2.676503948783534
 10
15.62732065972222
 20
2.606912837672423
 10
15.550346875
 20
2.536584226561311
 10
15.52665556464725
 20
2.50717010250958
 10
15.52851076388888
 20
2.456397559894645
 10
15.55447048611111
 20
2.372006309894644
 10
15.49520367454953
 20
2.39832719704064
 10
15.47251267361111
 20
2.392772950519644
 10
15.45543020833333
 20
2.371002143227976
 10
15.40281857638889
 20
2.264153098089087
 10
15.34396770833333
 20
2.199507698783533
 10
15.33049910519917
 20
2.231110605463639
 10
15.32820034722222
 20
2.303091292533534
 10
15.35698715277777
 20
2.477339782116866
 10
15.37147098411983
 20
2.529269325369386
 10
15.36633626160091
 20
2.585611692865877
 10
15.34698700222438
 20
2.608921283920795
 10
15.3210454861111
 20
2.595693671005755
 10
15.24296493055555
 20
2.489882646700199
 10
15.16796909722221
 20
2.440257421005755
 10
15.16144014756943
 20
2.491492303818255
 10
15.17499062499999
 20
2.578444296005756
 10
15.24367881944443
 20
2.781376171005755
 10
15.26936623263887
 20
2.833800025172422
 10
15.27318854166666
 20
2.899267212672422
 10
15.25677647569443
 20
2.953701483505757
 10
15.22176076388888
 20
2.973026587672422
 10
15.12074635416666
 20
2.885666709200198
 10
15.04399965277777
 20
2.851525893227976
 10
15.0352515279134
 20
2.893713147090994
 10
15.06409336047702
 20
2.995744275966407
 10
15.12230277777777
 20
3.121741850259227
 10
15.19067326388888
 20
3.23200547656131
 10
15.21511355343394
 20
3.254618731628181
 10
15.23359627128706
 20
3.29386151523397
 10
15.25537278714179
 20
3.422834840698428
 10
15.23915900831752
 20
3.493083357148887
 10
15.22171281261973
 20
3.507030518508675
 10
15.19208437499999
 20
3.505361587672422
 10
15.13618309461805
 20
3.487391700519644
 10
15.07748385853766
 20
3.484169178824613
 10
15.03650761718749
 20
3.494504947047423
 10
15.01453993055554
 20
3.518735059894644
 10
15.02580937635633
 20
3.577642523578726
 10
15.075626862314
 20
3.665455799510932
 10
15.28480381944444
 20
3.918556032116866
 10
15.33639927842881
 20
3.965633915688914
 10
15.38287520005967
 20
4.055350772378368
 10
15.39788117947048
 20
4.128804167425026
 10
15.3835454861111
 20
4.178213254339088
 10
15.32544982638888
 20
4.175939840710616
 10
15.26387187499999
 20
4.18801375781131
 10
15.21111874423556
 20
4.212351428802465
 10
15.18923576388888
 20
4.240143532116866
 10
15.20401804762946
 20
4.309973972621152
 10
15.27714830269813
 20
4.414053289430065
 10
15.38434533420138
 20
4.513294000866867
 10
15.49118437499999
 20
4.577545893227978
 10
15.52737594604491
 20
4.588979042336863
 10
15.55754878950118
 20
4.637929374859256
 10
15.57198506898879
 20
4.718337878477496
 10
15.56190381944443
 20
4.788971726561311
 10
15.51905126130845
 20
4.801520468998673
 10
15.48387070787217
 20
4.829695705366852
 10
15.45503194444444
 20
4.87354801562381
 10
15.44468854166666
 20
4.911828671005757
 10
15.46674550103081
 20
4.980865051324292
 10
15.54700467698838
 20
5.070294164259888
 10
15.65827526041666
 20
5.145692069443256
 10
15.76502881944443
 20
5.184642282116867
 10
15.80008106553819
 20
5.207828382275558
 10
15.82819495510524
 20
5.260491184785289
 10
15.84324734157986
 20
5.334731009499951
 10
15.83078298611112
 20
5.372820337672428
 42
-0.201456457916673
 10
15.72615520833332
 20
5.474952559894644
 10
15.71869418690998
 20
5.51699552101525
 10
15.72584719918568
 20
5.553603166240775
 10
15.77967604166665
 20
5.633861032116871
 42
-0.1697862401418346
 10
16.04535659722221
 20
5.748688393227978
 42
0.1435147111360775
 10
16.20478020833332
 20
5.815257421005755
 10
16.31703020833332
 20
6.016320893227977
 10
15.26893437499999
 20
6.016320893227977
 10
14.5970329861111
 20
4.052236587672422
 10
13.96986215277777
 20
2.217465615450195
 42
-0.01850537526421057
 10
13.8191454861111
 20
1.943431309894636
 42
-0.07095101026934729
 10
13.51936881944443
 20
1.55060908767242
 42
-0.05395412428030719
 10
13.26093229166665
 20
1.354211448783531
 42
-0.1120541772945041
 10
13.05417243055554
 20
1.292199782116867
 10
12.9559706423611
 20
1.292197768227979
 10
12.88878062499998
 20
1.312870337672422
 42
-0.2401368103631628
 10
12.83710423611109
 20
1.416223115450203
 42
-0.06817668287691335
 10
12.85777479166665
 20
1.540273671005759
 42
-0.04316316952231666
 10
12.91978645833332
 20
1.716027837672421
 10
13.65375465277776
 20
3.866174365450203
 10
14.39803020833332
 20
6.016320893227981
 10
12.36157256944443
 20
6.016320893227981
 10
11.6896704861111
 20
4.052236587672425
 10
11.05905520833332
 20
2.207564365450197
 42
-0.1015330083485438
 10
10.31496881944443
 20
1.281864504339089
 10
10.17929241834851
 20
1.180105904621206
 10
10.0358634440104
 20
1.091913206596034
 10
9.884681771104594
 20
1.017286999456275
 10
9.725747274305547
 20
0.9562278723946456
 10
9.559059828287753
 20
0.9087364146038457
 10
9.384619307725687
 20
0.8748132152765855
 10
9.202425587293829
 20
0.8544588636055845
 10
9.01247854166666
 20
0.8476739487835356
 10
8.830281642795134
 20
0.8599520303807555
 10
8.666171788194438
 20
0.8967842265613157
 10
8.520152115885411
 20
0.9581674644085343
 10
8.392225763888883
 20
1.044098671005756
 10
8.289499073350688
 20
1.157808174043945
 10
8.208738906249993
 20
1.292191778644645
 10
8.149945431857631
 20
1.447249940537006
 10
8.113118819444457
 20
1.622983115451055
 42
0.03698607200902311
 10
8.629991597222212
 20
1.643653671005754
 42
0.0373762332401238
 10
9.250217291666653
 20
1.757368948783532
 42
0.08532796318262151
 10
10.31496881944443
 20
2.222538254339089
 10
10.42851688368054
 20
2.306366812281798
 10
10.52623546874999
 20
2.397624868922422
 10
10.60812475694443
 20
2.496312560979716
 10
10.67418493055554
 20
2.602430025172424
 10
10.72441617187499
 20
2.715977398219298
 10
10.75881866319443
 20
2.836954816839093
 10
10.77739258680554
 20
2.96536241775055
 10
10.78013812499999
 20
3.101200337672426
 10
10.7588173111979
 20
3.267889033418953
 10
10.70519244791665
 20
3.416487820311314
 10
10.61926365234374
 20
3.546996372828676
 10
10.50103104166666
 20
3.659414365450211
 42
0.1027296063412201
 10
9.942817152777764
 20
3.948856587672426
 42
0.08111306463776141
 10
9.880805347222214
 20
3.959191865450204
 10
9.829128958333325
 20
3.979889643227982
 42
0.04658948712253758
 10
9.446642013888884
 20
4.052236587672429
 42
0.02492877251495869
 10
9.022813819444446
 20
4.07290714322798
 42
0.01663269020031889
 10
8.723036319444434
 20
4.062571865450204
 42
0.01530045668397609
 10
8.423258680555552
 20
4.031566032116865
 42
0.0853740251556207
 10
7.218180624999994
 20
3.660553671005758
 10
7.143853402777772
 20
2.889150754339091
 42
-0.2691206083800466
 10
7.17871118055555
 20
2.900733809894646
 10
7.330557466376088
 20
2.668035443847636
 10
7.36957470110151
 20
2.574123035015191
 10
7.384738819444428
 20
2.493507282116866
 42
-0.1184393630913129
 10
7.338948819444439
 20
2.3391018654502
 42
-0.1020281554192148
 10
7.537380902777772
 20
2.367340754339089
 10
7.612064057117033
 20
2.343915365409512
 10
7.699744475442032
 20
2.296260547506204
 10
7.918755763888883
 20
2.125560198783536
 10
7.661300727663034
 20
2.006115333938787
 10
7.560979180408048
 20
1.979554587249416
 10
7.477810624999992
 20
1.974572837672424
 42
-0.08139359671789832
 10
7.512912569444437
 20
1.899540198783535
 10
7.513906145197543
 20
1.836060880101183
 10
7.492763665759822
 20
1.760661004442831
 10
7.448334162787325
 20
1.669458526488601
 10
7.38275854166666
 20
1.570086032116869
 10
7.246317828033229
 20
1.652795321763548
 10
7.142276214706626
 20
1.733257556183265
 10
7.077220135676059
 20
1.804283149846057
 10
7.047716180555549
 20
1.86951089322798
 42
-0.1282295084551915
 10
7.062988541666662
 20
1.960493948783535
 42
-0.09154149647449261
 10
6.983751319444438
 20
1.937273532116869
 10
6.89965652016957
 20
1.942378763486737
 10
6.786197508280535
 20
1.967333586376169
 10
6.465033958333326
 20
2.078278254339091
 10
6.588935535603092
 20
2.184471252718692
 10
6.703371092318952
 20
2.26367024685508
 10
6.798691551526381
 20
2.311075673009746
 10
6.879801736111104
 20
2.329200615450208
 42
-0.112294697529583
 10
7.014458819444437
 20
2.293122004339091
 10
6.962459835098048
 20
2.375290139929646
 10
6.939426319444437
 20
2.449968809894646
 10
6.955837242067118
 20
2.558337428859794
 10
7.013536458333325
 20
2.698965198783535
 10
7.09307215277777
 20
3.597592559894647
 10
7.056830763888882
 20
3.57317853211687
 10
6.906779427083325
 20
3.484131546982321
 10
6.771559470486104
 20
3.387338666665483
 10
6.650641974826382
 20
3.282474503796558
 10
6.543498020833326
 20
3.169213671005759
 10
6.449598689236105
 20
3.047230780923293
 10
6.368415060763882
 20
2.916200446179371
 10
6.299418216145826
 20
2.775797279404197
 10
6.242079236111101
 20
2.625695893227979
 42
0.03112370197725898
 10
6.159397013888879
 20
2.315582976561313
 42
0.03553302985060914
 10
6.138699236111107
 20
2.026140754339618
 42
0.02239382423897296
 10
6.145345347222213
 20
1.877079226561311
 10
6.098985763888882
 20
1.809045476561311
 42
-0.0298863492741335
 10
5.85088465277777
 20
1.529938393227981
 42
-0.08074091146261994
 10
5.571777569444436
 20
1.323205615450203
 42
-0.04000942921138167
 10
5.468397569444438
 20
1.271502004339089
 42
-0.04950269424678951
 10
5.365017708333326
 20
1.261166726561315
 42
-0.1965459877239672
 10
5.26166479166666
 20
1.292199782116869
 42
-0.117769196204396
 10
5.240994236111105
 20
1.385217282116864
 10
5.240994236111105
 20
1.436920893227981
 42
0.0779683736725014
 10
5.251329513888883
 20
1.488597282116869
 10
5.272000069444437
 20
1.560971448783537
 10
5.292670624999992
 20
1.622983115450202
 10
5.313341180555549
 20
1.674659643227981
 10
5.334011736111104
 20
1.716027837672424
 10
5.396050624999988
 20
1.933096032116859
 10
5.478732986111108
 20
2.150191309894656
 42
0.01429588656126019
 10
5.551107013888878
 20
2.367259365450203
 42
0.01429892819699534
 10
5.623454097222217
 20
2.584354643227985
 42
0.06748575543198303
 10
5.675157569444437
 20
2.780752282116868
 42
0.04950302605989955
 10
5.695828124999991
 20
2.987512282116672
 42
0.09066885607525703
 10
5.633789374999994
 20
3.328630893227981
 42
0.1175590167927607
 10
5.447727013888882
 20
3.649079087672425
 42
0.1374754985216971
 10
4.972222430555547
 20
3.969554365450202
 42
0.07231403239564245
 10
4.3933379861111
 20
4.072907143227982
 42
0.04108218692046966
 10
4.279622708333324
 20
4.062571865450204
 10
4.176242708333326
 20
4.062571865450201
 42
0.0558756539341845
 10
3.628363958333328
 20
3.938521309894647
 42
0.04322640175471308
 10
3.15285937499999
 20
3.742123809894644
 10
3.938476874999992
 20
6.01632089322798
 10
2.629557569444437
 20
6.01632089322798
 10
2.629990902777771
 20
5.826949087672424
 10
2.743617885809996
 20
5.790984910426332
 10
2.810085347222214
 20
5.733117698783536
 10
2.833031830389228
 20
5.668706307207404
 10
2.846623849090463
 20
5.575047386998792
 10
2.846353680555548
 20
5.294858115450203
 10
2.72956941992441
 20
5.34401679866333
 10
2.627929236111104
 20
5.444462143227979
 10
2.578556899374847
 20
5.149887845404604
 10
2.504122847222214
 20
4.932363532116868
 10
2.624393539422876
 20
4.873752094343164
 10
2.725267899182629
 20
4.808437319428847
 10
2.791914325527607
 20
4.74564627181549
 10
2.826062986111103
 20
4.687137837672424
 10
2.831797947896313
 20
4.600408135909694
 10
2.80278498123592
 20
4.487127090234946
 10
2.737430138494696
 20
4.341433596854929
 10
2.638671458333326
 20
4.174795198783539
 42
-0.06186346767043482
 10
2.461886458333323
 20
4.276873115450204
 42
-0.07483761046896378
 10
2.26272201388888
 20
4.125478809894645
 10
2.262583124999991
 20
4.126210754339089
 42
-0.04120204755980572
 10
2.139047847222216
 20
4.312924087672423
 42
0.02278325495452601
 10
1.917992152777769
 20
4.292904643227978
 10
1.892935411708082
 20
4.43527143198774
 10
1.88749066128571
 20
4.558323440698178
 10
1.90035630801306
 20
4.652524537217541
 10
1.932125208333325
 20
4.722754921005757
 10
1.992620490629399
 20
4.77912556620034
 10
2.089858091642585
 20
4.838610331138694
 10
2.38492465277777
 20
4.965891865450201
 10
2.460618409358124
 20
5.147598332482634
 10
2.50592755576239
 20
5.331022605615912
 10
2.525882074669724
 20
5.528950136506483
 10
2.520042847222214
 20
5.754927143227979
 10
2.486082034780706
 20
5.67348140083279
 10
2.446285347222215
 20
5.63584075433909
 10
2.380796709234442
 20
5.61617372273305
 10
2.286565782035714
 20
5.607325357362619
 10
2.006723680555548
 20
5.621734921005756
 10
2.061506070514247
 20
5.754086719003972
 10
2.102728673358487
 20
5.801422931009588
 10
2.143198263888881
 20
5.827626865450201
 10
2.285450985671142
 20
5.861161881989033
 10
2.519120624999991
 20
5.883019643227976
 10
2.508595486111104
 20
6.016320476561311
 10
1.953721736111111
 20
6.016319643227974
 10
0
 20
0.3308270043390849
 10
1.974419513888884
 20
0.3308270043390831
 42
0.007694921798129538
 10
2.108778263888897
 20
0.7339845043390945
 10
2.253526458333333
 20
1.147477421005755
 10
2.460259375000001
 20
1.74703242100575
 10
2.677354652777778
 20
2.356922837672418
 42
-0.04610556001178969
 10
2.739366319444442
 20
2.511979365450193
 10
2.853081597222216
 20
2.708403948783513
 42
-0.06766442117995211
 10
3.132188541666666
 20
3.049522698783528
 10
3.216176788194446
 20
3.121882842012697
 10
3.302746909722223
 20
3.173567594616863
 10
3.391901354166667
 20
3.204577815971028
  0
LWPOLYLINE
  5
4E
100
AcDbEntity
  8
0
  6
ByLayer
 62
  256
370
   -1
100
AcDbPolyline
 90
   20
 70
    1
 43
0
 10
9.674045208333332
 20
3.556058254339087
 10
9.714749518229167
 20
3.513416010415476
 10
9.74382625
 20
3.457850927950199
 10
9.767089791666667
 20
3.307957143227975
 10
9.741894442274305
 20
3.107671223089087
 10
9.676644288194444
 20
2.930642490450198
 10
9.571337233072917
 20
2.776872611977975
 10
9.42597118055556
 20
2.646363254339078
 42
-0.0964128647271284
 10
8.712700763888886
 20
2.305244504339084
 42
-0.03651783626280896
 10
8.443929097222222
 20
2.243205615450194
 42
-0.01735854086194977
 10
8.185492569444442
 20
2.212199782116856
 42
-0.01181726536369254
 10
8.237169097222228
 20
2.43963033767241
 42
-0.03750939954836149
 10
8.319878541666672
 20
2.687704365450196
 42
-0.09331584757676588
 10
8.743706597222223
 20
3.349298254339084
 10
8.880215661892363
 20
3.472785148870335
 10
9.028081093750002
 20
3.562201327255751
 10
9.187303374565973
 20
3.617546906682835
 10
9.357882986111111
 20
3.638823948783531
 10
9.405300625000001
 20
3.638740615450198
 10
9.560347135416666
 20
3.61290532031131
  0
LWPOLYLINE
  5
4F
100
AcDbEntity
  8
0
  6
ByLayer
 62
  256
370
   -1
100
AcDbPolyline
 90
   26
 70
    1
 43
0
 10
20.55387326388888
 20
2.977175754339084
 42
0.1745741911126282
 10
20.03700104166664
 20
2.615359365450215
 42
0.1359550802072812
 10
19.80959687499999
 20
2.03647478211686
 10
19.80959687499999
 20
1.964100615450171
 42
0.1117711284355611
 10
19.89228020833329
 20
1.591976032116846
 42
0.1159759998256952
 10
20.15071631944444
 20
1.312869087672415
 42
-0.04002672657646641
 10
20.09903993055555
 20
1.209489087672415
 42
0.0256706745645317
 10
20.03700104166669
 20
1.116444365450173
 42
-0.08539494876504743
 10
19.70621770833333
 20
0.7029515876724152
 42
-0.1910205616529913
 10
19.25138298611111
 20
0.5272245043390954
 42
-0.2792525502431773
 10
19.0032829861111
 20
0.6616103376724175
 42
-0.0726211017457504
 10
18.89990243055555
 20
0.9820585321168569
 42
-0.02702047035256302
 10
18.86889687499999
 20
1.168147976561306
 10
18.86889687499998
 20
1.323204365451762
 42
-0.02268259984615352
 10
18.87923159722221
 20
1.55060783767242
 10
18.89990243055555
 20
1.798708948783518
 42
-0.05660505723801806
 10
19.10666215277778
 20
2.522314643227965
 42
-0.08192870472900332
 10
19.48912187499999
 20
3.163237976561304
 42
0.02764547113739222
 10
19.58216631944444
 20
3.266617976561305
 42
-0.02764038330471652
 10
19.68554687499999
 20
3.359635615450197
 42
-0.07507119218361868
 10
19.93362048611109
 20
3.514692004339103
 42
-0.1160512394034902
 10
20.16105104166666
 20
3.576730754339096
 42
-0.2570054947651018
 10
20.42982326388888
 20
3.432009643227974
 10
20.48021799045138
 20
3.353188918401584
 10
20.51769149305555
 20
3.251110407116862
 10
20.54224338107638
 20
3.125773041665475
  0
LWPOLYLINE
  5
50
100
AcDbEntity
  8
0
  6
ByLayer
 62
  256
370
   -1
100
AcDbPolyline
 90
   24
 70
    1
 43
0
 10
13.18649631944444
 20
5.557416587672417
 42
-0.01211085131494445
 10
13.34027770833334
 20
5.668039365450194
 42
-0.01455849054738243
 10
13.34849715277777
 20
5.466406448783536
 42
-0.01221553124188654
 10
13.53398979166666
 20
5.503515754339086
 42
-0.01233202346299362
 10
13.47347006944445
 20
5.351443254339095
 42
-0.04011200073089392
 10
13.72083854166666
 20
5.210194365450203
 42
-0.02301581891047139
 10
13.54353840277777
 20
5.083159921005756
 42
-0.03548217360243476
 10
13.66634131944443
 20
4.864464087672427
 42
-0.02676442696584043
 10
13.42480465277777
 20
4.843169643227897
 42
-0.03933384048985175
 10
13.39968534722222
 20
4.564388115450194
 42
-0.02739143626713051
 10
13.17930770833332
 20
4.692399226561308
 42
-0.04175126596473043
 10
12.9802517361111
 20
4.474028948783528
 42
-0.01901413194373525
 10
12.90760631944445
 20
4.643679643227973
 42
-0.02795993583176638
 10
12.71256506944445
 20
4.565039226561313
 42
-0.01895819284903793
 10
12.71660701388889
 20
4.74950103211687
 42
-0.0277871689756481
 10
12.5067817361111
 20
4.75839853211686
 42
-0.0279340686695491
 10
12.62380645833332
 20
4.992583671005747
 10
12.46291770833333
 20
5.042605337672416
 42
-0.01662504896638574
 10
12.64729812499999
 20
5.193185893227986
 42
-0.01384394362201949
 10
12.49633784722221
 20
5.355919226561316
 42
-0.01867866696309617
 10
12.75661895833332
 20
5.395605615450204
 42
-0.01573453865920741
 10
12.72257493055554
 20
5.637684643227981
 42
-0.02002552436714041
 10
12.9700792361111
 20
5.514936171005741
 42
-0.01662711136859926
 10
13.09554034722221
 20
5.737782282116862
 42
-0.01448321816547337
  0
LWPOLYLINE
  5
51
100
AcDbEntity
  8
0
  6
ByLayer
 62
  256
370
   -1
100
AcDbPolyline
 90
    4
 70
    1
 43
0
 10
3.386610208333336
 20
5.361100337672786
 42
-0.4142310878191641
 10
3.253309513889023
 20
5.227799643227972
 42
-0.414232044179919
 10
3.12000868055555
 20
5.36110033767311
 42
-0.4142322191018841
 10
3.253309513888892
 20
5.494401171005753
 42
-0.4142320441820208
  0
LWPOLYLINE
  5
52
100
AcDbEntity
  8
0
  6
ByLayer
 62
  256
370
   -1
100
AcDbPolyline
 90
    4
 70
    1
 43
0
 10
12.55935326388887
 20
4.074560754338298
 42
-0.4142320441799844
 10
12.42605256944444
 20
3.941259921005758
 42
-0.4142330005436844
 10
12.29275173611111
 20
4.074560754339278
 42
-0.4142316534607153
 10
12.42605256944444
 20
4.20786144878354
 42
-0.4142303063778
  0
LWPOLYLINE
  5
53
100
AcDbEntity
  8
0
  6
ByLayer
 62
  256
370
   -1
100
AcDbPolyline
 90
    4
 70
    1
 43
0
 10
16.24332743055556
 20
4.020958254338771
 42
-0.4142337002272701
 10
16.11002604166667
 20
3.887657421005752
 42
-0.4142337002266065
 10
15.97672465277777
 20
4.020958254339249
 42
-0.4142337002270087
 10
16.11002604166669
 20
4.154259087672411
 42
-0.4142337002269267
  0
LWPOLYLINE
  5
54
100
AcDbEntity
  8
0
  6
ByLayer
 62
  256
370
   -1
100
AcDbPolyline
 90
    4
 70
    1
 43
0
 10
1.756320486111109
 20
3.593332421005888
 42
-0.4142320441820177
 10
1.623019791666666
 20
3.46003158767242
 42
-0.4142322191044331
 10
1.489718958333326
 20
3.593332421006467
 42
-0.4142320441801347
 10
1.623019791666666
 20
3.726633115450197
 42
-0.4142310878193248
  0
LWPOLYLINE
  5
55
100
AcDbEntity
  8
0
  6
ByLayer
 62
  256
370
   -1
100
AcDbPolyline
 90
    3
 70
    1
 43
0
 10
4.574924097222219
 20
3.573692698782844
 42
-0.4142322191018717
 10
4.441623265269463
 20
3.440399802942995
 42
-0.999826077708983
 10
4.441623263888888
 20
3.706993393227975
 42
-0.4142300905773197
  0
LWPOLYLINE
  5
56
100
AcDbEntity
  8
0
  6
ByLayer
 62
  256
370
   -1
100
AcDbPolyline
 90
    4
 70
    1
 43
0
 10
19.38221631944445
 20
3.507069365450016
 42
-0.4142337002269785
 10
19.24891493055556
 20
3.373768532116868
 42
-0.4142337002266007
 10
19.11561354166666
 20
3.507069365450503
 42
-0.4142337002267001
 10
19.24891493055528
 20
3.640370198783518
 42
-0.4142337002275667
  0
LWPOLYLINE
  5
57
100
AcDbEntity
  8
0
  6
ByLayer
 62
  256
370
   -1
100
AcDbPolyline
 90
    4
 70
    1
 43
0
 10
8.169379374999998
 20
3.279069087671783
 42
-0.4141717500152833
 10
8.036105625000001
 20
3.145768393227973
 42
-0.4142310878199449
 10
7.902804930555561
 20
3.279069087672288
 42
-0.4142320441819993
 10
8.036105624999999
 20
3.412369921005757
 42
-0.4141727065251878
  0
LWPOLYLINE
  5
58
100
AcDbEntity
  8
0
  6
ByLayer
 62
  256
370
   -1
100
AcDbPolyline
 90
    4
 70
    1
 43
0
 10
13.01109479166666
 20
3.200510059894565
 42
-0.4141715750631298
 10
12.87782118055555
 20
3.067209365450202
 42
-0.4142320441806452
 10
12.74452034722222
 20
3.200510059894402
 42
-0.4142322191038984
 10
12.87782118055555
 20
3.333810893227974
 42
-0.4141717500517756
  0
LWPOLYLINE
  5
59
100
AcDbEntity
  8
0
  6
ByLayer
 62
  256
370
   -1
100
AcDbPolyline
 90
    4
 70
    1
 43
0
 10
2.600911458333337
 20
3.102284226561048
 42
-0.4141717500517681
 10
2.467637847222223
 20
2.968983393227974
 42
-0.4142322191014481
 10
2.334337013888888
 20
3.102284226561029
 42
-0.4142336070659651
 10
2.467637847222222
 20
3.235584921005749
 42
-0.4141723565034204
  0
LWPOLYLINE
  5
5A
100
AcDbEntity
  8
0
  6
ByLayer
 62
  256
370
   -1
100
AcDbPolyline
 90
    4
 70
    1
 43
0
 10
5.036512569444445
 20
2.954986032117187
 42
-0.4142312627412674
 10
4.903211875000001
 20
2.821685198783531
 42
-0.4142322191015348
 10
4.769911041666671
 20
2.954986032116933
 42
-0.4142330005439649
 10
4.903211874999998
 20
3.088286865450186
 42
-0.4142316534611458
  0
LWPOLYLINE
  5
5B
100
AcDbEntity
  8
0
  6
ByLayer
 62
  256
370
   -1
100
AcDbPolyline
 90
    3
 70
    1
 43
0
 10
10.24161784722222
 20
2.905886587671702
 42
-0.4142320441801415
 10
10.10831701388888
 20
2.772585893227973
 42
-0.4142310878198848
 10
9.975024671889384
 20
2.905886586241216
 42
-0.9998286761596982
  0
LWPOLYLINE
  5
5C
100
AcDbEntity
  8
0
  6
ByLayer
 62
  256
370
   -1
100
AcDbPolyline
 90
    4
 70
    1
 43
0
 10
1.702311180555553
 20
2.527767004339006
 42
-0.4142291342163362
 10
1.569010486111112
 20
2.394466309894648
 42
-0.4142320441817239
 10
1.435709652777779
 20
2.527767004339442
 42
-0.4142322191026089
 10
1.569010486109928
 20
2.661067837672421
 42
-0.4142320441825991
  0
LWPOLYLINE
  5
5D
100
AcDbEntity
  8
0
  6
ByLayer
 62
  256
370
   -1
100
AcDbPolyline
 90
    3
 70
    1
 43
0
 10
9.426459374999997
 20
2.169314365450331
 42
-0.4142320441819979
 10
9.293158682010404
 20
2.036022023450682
 42
-0.9998286762491457
 10
9.293158680555557
 20
2.302615198783533
 42
-0.4142320441820073
  0
LWPOLYLINE
  5
5E
100
AcDbEntity
  8
0
  6
ByLayer
 62
  256
370
   -1
100
AcDbPolyline
 90
    4
 70
    1
 43
0
 10
20.29888298611111
 20
2.145958254338773
 42
-0.414233700227272
 10
20.16558159722222
 20
2.012657421005756
 42
-0.4142337002266005
 10
20.03228020833332
 20
2.145958254339249
 42
-0.4142337002270056
 10
20.16558159722224
 20
2.279259087672411
 42
-0.4142337002269315
  0
LWPOLYLINE
  5
5F
100
AcDbEntity
  8
0
  6
ByLayer
 62
  256
370
   -1
100
AcDbPolyline
 90
   12
 70
    1
 43
0
 10
14.86816076388889
 20
1.675011032116874
 42
-0.04822635286774404
 10
15.18586909722221
 20
1.508697004339103
 42
-0.04573843395913722
 10
14.91766770833332
 20
1.387006448783528
 42
-0.0341966473671076
 10
14.97023993055555
 20
1.130604504339057
 42
-0.06188300011691635
 10
14.64281909722222
 20
1.291466032116861
 42
-0.042457532012631
 10
14.37798159722221
 20
1.115712004339086
 42
-0.04753585657077716
 10
14.39645520833333
 20
1.412261448783521
 42
-0.01704936199993237
 10
14.13012465277777
 20
1.503190198783533
 42
-0.0335136103387912
 10
14.38793715277778
 20
1.647612976561314
 42
-0.01871070239774703
 10
14.27517048611111
 20
1.924902421005769
 42
-0.04086007847771247
 10
14.60657881944444
 20
1.79841047656129
 42
-0.02297063897320819
 10
14.86829965277779
 20
2.049359921005753
 42
-0.06320009515801411
  0
LWPOLYLINE
  5
60
100
AcDbEntity
  8
0
  6
ByLayer
 62
  256
370
   -1
100
AcDbPolyline
 90
    4
 70
    1
 43
0
 10
2.100043402777782
 20
1.825564365449937
 42
-0.4141717500517728
 10
1.966769791666666
 20
1.692263532116863
 42
-0.4142322191054616
 10
1.833468958333331
 20
1.825564365449027
 42
-0.4142322191059577
 10
1.966769791666667
 20
1.958865198783529
 42
-0.4141717500517762
  0
LWPOLYLINE
  5
61
100
AcDbEntity
  8
0
  6
ByLayer
 62
  256
370
   -1
100
AcDbPolyline
 90
    4
 70
    1
 43
0
 10
11.77368159722221
 20
1.707725893228114
 42
-0.4142320441820122
 10
11.64038090277777
 20
1.574425059894644
 42
-0.4142322191044334
 10
11.50708006944443
 20
1.707725893228687
 42
-0.4142320441801581
 10
11.64038090277778
 20
1.841026587672417
 42
-0.4142310878193483
  0
LWPOLYLINE
  5
62
100
AcDbEntity
  8
0
  6
ByLayer
 62
  256
370
   -1
100
AcDbPolyline
 90
   24
 70
    1
 43
0
 10
1.36509868055555
 20
1.632991726561299
 10
1.47984479166666
 20
1.715565476561311
 42
-0.01463778170244921
 10
1.486002569444445
 20
1.565066309894636
 10
1.624457430555555
 20
1.592762698783527
 10
1.579264374999998
 20
1.479264504339085
 42
-0.04011458439618899
 10
1.763916041666668
 20
1.373822837672417
 42
-0.02296148369797013
 10
1.63156465277778
 20
1.279014921005752
 42
-0.03549446968157818
 10
1.723225902777772
 20
1.115766171005744
 42
-0.02669419634624822
 10
1.542941597222223
 20
1.099897004339085
 42
-0.03932199711675011
 10
1.524197013888889
 20
0.8918078376724157
 42
-0.02741529256357972
 10
1.359700486111109
 20
0.9873482543390856
 42
-0.04173236461319388
 10
1.211154513888885
 20
0.8243707543390854
 42
-0.01911890841714559
 10
1.156901041666667
 20
0.9509983932279744
 42
-0.02792769264337898
 10
1.011338972222226
 20
0.8922961710057437
 42
-0.01898225269781664
 10
1.014350041666665
 20
1.029964365450196
 42
-0.02780911026035581
 10
0.8577474027777781
 20
1.036610337672416
 42
-0.02794059541393039
 10
0.9450954861111125
 20
1.211415059894644
 10
0.8250054305555512
 20
1.248741448783536
 42
-0.01668161938694186
 10
0.96261936111111
 20
1.361154643227972
 42
-0.01379005315718606
 10
0.8499349027777767
 20
1.482601032116863
 42
-0.01867561239856057
 10
1.044216583333328
 20
1.512223393227973
 42
-0.01571535388833007
 10
1.01879883333333
 20
1.692914643227969
 42
-0.01998979929377584
 10
1.203531874999999
 20
1.60128047656131
 42
-0.01666866825798557
 10
1.29720048611111
 20
1.767621726561311
 42
-0.01450050471267293
  0
LWPOLYLINE
  5
63
100
AcDbEntity
  8
0
  6
ByLayer
 62
  256
370
   -1
100
AcDbPolyline
 90
    4
 70
    1
 43
0
 10
7.048882430555556
 20
1.354291587671733
 42
-0.4142322191018595
 10
6.915581597222221
 20
1.220990754339086
 42
-0.4142322191034117
 10
6.782280763888888
 20
1.354291587673107
 42
-0.4142322191018656
 10
6.915581597222221
 20
1.487592421005751
 42
-0.4142322191039056
  0
LWPOLYLINE
  5
64
100
AcDbEntity
  8
0
  6
ByLayer
 62
  256
370
   -1
100
AcDbPolyline
 90
    4
 70
    1
 43
0
 10
17.96554965277778
 20
1.298736032116551
 42
-0.4142337002272782
 10
17.83224826388889
 20
1.165435198783536
 42
-0.4142337002265991
 10
17.69894687499998
 20
1.298736032117159
 42
-0.4142337002273225
 10
17.83224826388891
 20
1.432036865450186
 42
-0.4142337002269411
  0
LWPOLYLINE
  5
65
100
AcDbEntity
  8
0
  6
ByLayer
 62
  256
370
   -1
100
AcDbPolyline
 90
    3
 70
    1
 43
0
 10
7.874755902777779
 20
1.000613254339335
 42
-0.4142322191039094
 10
7.741455070850543
 20
0.8673205363169353
 42
-0.9998267447098459
 10
7.741455069444444
 20
1.133913948783524
 42
-0.4142320441801363
  0
LWPOLYLINE
  5
66
100
AcDbEntity
  8
0
  6
ByLayer
 62
  256
370
   -1
100
AcDbPolyline
 90
    4
 70
    1
 43
0
 10
15.36832743055556
 20
0.7709582543389057
 42
-0.4142337002269775
 10
15.23502604166667
 20
0.6376574210057555
 42
-0.4142337002266029
 10
15.10172465277777
 20
0.7709582543393854
 42
-0.4142337002273035
 10
15.23502604166669
 20
0.9042590876724149
 42
-0.4142337002269234
  0
LWPOLYLINE
  5
67
100
AcDbEntity
  8
0
  6
ByLayer
 62
  256
370
   -1
100
AcDbPolyline
 90
    4
 70
    1
 43
0
 10
5.419542152777776
 20
0.7256295043384053
 42
-0.4142322191018741
 10
5.286241319444432
 20
0.592328671005756
 42
-0.4142322191044062
 10
5.152940486111101
 20
0.7256295043397945
 42
-0.4142320441801477
 10
5.286241319444444
 20
0.8589301987835256
 42
-0.4142320441801358
  0
LWPOLYLINE
  5
68
100
AcDbEntity
  8
0
  6
ByLayer
 62
  256
370
   -1
100
AcDbPolyline
 90
    4
 70
    1
 43
0
 10
18.67388298611111
 20
0.5765138098944647
 42
-0.4142337002269858
 10
18.54058159722222
 20
0.4432129765613144
 42
-0.4142337002266105
 10
18.40728020833332
 20
0.5765138098948057
 42
-0.4142337002270069
 10
18.54058159722224
 20
0.7098146432279755
 42
-0.4142337002269249
  0
LWPOLYLINE
  5
69
100
AcDbEntity
  8
0
  6
ByLayer
 62
  256
370
   -1
100
AcDbPolyline
 90
    4
 70
    1
 43
0
 10
9.493326874999999
 20
0.5209582543383959
 42
-0.4142322191018582
 10
9.360026041666666
 20
0.3876574210057555
 42
-0.4142322191013741
 10
9.226725208333333
 20
0.5209582543397744
 42
-0.4142322191018563
 10
9.360026041666666
 20
0.6542590876724148
 42
-0.4142322191038977
  0
ENDSEC
  0
SECTION
  2
OBJECTS
  0
DICTIONARY
  5
C
330
0
100
AcDbDictionary
281
    1
  3
ACAD_GROUP
350
D
  0
DICTIONARY
  5
D
330
C
100
AcDbDictionary
281
    1
  0
ENDSEC
  0
EOF
